{
	"asset":{
		"generator":"Khronos glTF Blender I/O v3.6.27",
		"version":"2.0"
	},
	"scene":0,
	"scenes":[
		{
			"name":"Scene",
			"nodes":[
				5
			]
		}
	],
	"nodes":[
		{
			"mesh":0,
			"name":"Cube",
			"scale":[
				0.3373323380947113,
				0.3373323380947113,
				0.3373323380947113
			],
			"translation":[
				0,
				-0.6097373366355896,
				0.04947981238365173
			]
		},
		{
			"mesh":1,
			"name":"Cube.001",
			"scale":[
				0.1001560389995575,
				0.10015604645013809,
				0.10015604645013809
			],
			"translation":[
				-0.026753827929496765,
				-0.5866757035255432,
				-0.10268035531044006
			]
		},
		{
			"mesh":2,
			"name":"Cube.002",
			"scale":[
				0.3373323380947113,
				0.3373323082923889,
				0.3373323082923889
			],
			"translation":[
				0,
				-0.5776894688606262,
				-0.577689528465271
			]
		},
		{
			"mesh":3,
			"name":"Cube.003",
			"rotation":[
				-0.7071068286895752,
				0,
				0,
				0.7071068286895752
			],
			"scale":[
				0.3373323380947113,
				0.3373323082923889,
				0.3373323082923889
			],
			"translation":[
				0,
				-0.5444146394729614,
				-0.577689528465271
			]
		},
		{
			"mesh":4,
			"name":"Plane",
			"scale":[
				0.3373323380947113,
				0.3373323380947113,
				0.3373323380947113
			],
			"translation":[
				0,
				-0.568494439125061,
				0.04947982728481293
			]
		},
		{
			"children":[
				0,
				1,
				2,
				3,
				4
			],
			"name":"Empty",
			"rotation":[
				0.2164396196603775,
				0,
				0,
				0.9762960076332092
			],
			"scale":[
				2.964435338973999,
				2.964435338973999,
				2.964435338973999
			],
			"translation":[
				0,
				-2.356055974960327,
				-0.14667963981628418
			]
		}
	],
	"animations":[
		{
			"channels":[
				{
					"sampler":0,
					"target":{
						"node":5,
						"path":"translation"
					}
				},
				{
					"sampler":1,
					"target":{
						"node":5,
						"path":"rotation"
					}
				}
			],
			"name":"EmptyAction",
			"samplers":[
				{
					"input":24,
					"interpolation":"LINEAR",
					"output":25
				},
				{
					"input":24,
					"interpolation":"LINEAR",
					"output":26
				}
			]
		},
		{
			"channels":[
				{
					"sampler":0,
					"target":{
						"node":2,
						"path":"rotation"
					}
				}
			],
			"name":"Cube.002Action",
			"samplers":[
				{
					"input":24,
					"interpolation":"LINEAR",
					"output":27
				}
			]
		}
	],
	"materials":[
		{
			"doubleSided":true,
			"name":"Material.002",
			"pbrMetallicRoughness":{
				"baseColorFactor":[
					0.800000011920929,
					0.800000011920929,
					0.800000011920929,
					1
				],
				"roughnessFactor":0.5
			}
		},
		{
			"doubleSided":true,
			"name":"Material.003",
			"pbrMetallicRoughness":{
				"baseColorFactor":[
					0.01520849671214819,
					0.015208500437438488,
					0.017641955986618996,
					1
				],
				"metallicFactor":0,
				"roughnessFactor":0.30000001192092896
			}
		},
		{
			"doubleSided":true,
			"name":"Material",
			"pbrMetallicRoughness":{
				"baseColorTexture":{
					"index":0
				},
				"roughnessFactor":0.5
			}
		},
		{
			"doubleSided":true,
			"name":"Material.001",
			"pbrMetallicRoughness":{
				"baseColorFactor":[
					0.027320848777890205,
					0.02842601016163826,
					0.029556842520833015,
					1
				],
				"metallicFactor":0,
				"roughnessFactor":0.20000000298023224
			}
		}
	],
	"meshes":[
		{
			"name":"Cube",
			"primitives":[
				{
					"attributes":{
						"POSITION":0,
						"NORMAL":1,
						"TEXCOORD_0":2
					},
					"indices":3,
					"material":0
				}
			]
		},
		{
			"name":"Cube.001",
			"primitives":[
				{
					"attributes":{
						"POSITION":4,
						"NORMAL":5,
						"TEXCOORD_0":6
					},
					"indices":7,
					"material":1
				}
			]
		},
		{
			"name":"Cube.002",
			"primitives":[
				{
					"attributes":{
						"POSITION":8,
						"NORMAL":9,
						"TEXCOORD_0":10
					},
					"indices":11,
					"material":2
				},
				{
					"attributes":{
						"POSITION":12,
						"NORMAL":13,
						"TEXCOORD_0":14
					},
					"indices":15,
					"material":3
				}
			]
		},
		{
			"name":"Cube.003",
			"primitives":[
				{
					"attributes":{
						"POSITION":16,
						"NORMAL":17,
						"TEXCOORD_0":18
					},
					"indices":19,
					"material":2
				}
			]
		},
		{
			"name":"Plane",
			"primitives":[
				{
					"attributes":{
						"POSITION":20,
						"NORMAL":21,
						"TEXCOORD_0":22
					},
					"indices":23
				}
			]
		}
	],
	"textures":[
		{
			"sampler":0,
			"source":0
		}
	],
	"images":[
		{
			"bufferView":12,
			"mimeType":"image/png",
			"name":"logo_uv"
		}
	],
	"accessors":[
		{
			"bufferView":0,
			"componentType":5126,
			"count":82,
			"max":[
				2.62001633644104,
				0.18248403072357178,
				2.0028326511383057
			],
			"min":[
				-2.62001633644104,
				-0.10143908858299255,
				-2.0028326511383057
			],
			"type":"VEC3"
		},
		{
			"bufferView":1,
			"componentType":5126,
			"count":82,
			"type":"VEC3"
		},
		{
			"bufferView":2,
			"componentType":5126,
			"count":82,
			"type":"VEC2"
		},
		{
			"bufferView":3,
			"componentType":5123,
			"count":228,
			"type":"SCALAR"
		},
		{
			"bufferView":4,
			"componentType":5126,
			"count":1374,
			"max":[
				6.757835388183594,
				0.45859789848327637,
				4.821053504943848
			],
			"min":[
				-6.242164611816406,
				-0.45859789848327637,
				-3.778946876525879
			],
			"type":"VEC3"
		},
		{
			"bufferView":5,
			"componentType":5126,
			"count":1374,
			"type":"VEC3"
		},
		{
			"bufferView":6,
			"componentType":5126,
			"count":1374,
			"type":"VEC2"
		},
		{
			"bufferView":7,
			"componentType":5123,
			"count":4332,
			"type":"SCALAR"
		},
		{
			"bufferView":8,
			"componentType":5126,
			"count":50,
			"max":[
				2.62001633644104,
				0.23447641730308533,
				3.8620357513427734
			],
			"min":[
				-2.62001633644104,
				0.10943564027547836,
				-0.1436295509338379
			],
			"type":"VEC3"
		},
		{
			"bufferView":9,
			"componentType":5126,
			"count":50,
			"type":"VEC3"
		},
		{
			"bufferView":10,
			"componentType":5126,
			"count":50,
			"type":"VEC2"
		},
		{
			"bufferView":11,
			"componentType":5123,
			"count":222,
			"type":"SCALAR"
		},
		{
			"bufferView":13,
			"componentType":5126,
			"count":30,
			"max":[
				2.62001633644104,
				0.10943564027547836,
				3.8620357513427734
			],
			"min":[
				-2.62001633644104,
				0,
				-0.1436295509338379
			],
			"type":"VEC3"
		},
		{
			"bufferView":14,
			"componentType":5126,
			"count":30,
			"type":"VEC3"
		},
		{
			"bufferView":15,
			"componentType":5126,
			"count":30,
			"type":"VEC2"
		},
		{
			"bufferView":16,
			"componentType":5123,
			"count":102,
			"type":"SCALAR"
		},
		{
			"bufferView":17,
			"componentType":5126,
			"count":8,
			"max":[
				1.80745267868042,
				0.11209172010421753,
				0.1436293125152588
			],
			"min":[
				-1.80745267868042,
				-0.0026560910046100616,
				-0.1436295509338379
			],
			"type":"VEC3"
		},
		{
			"bufferView":18,
			"componentType":5126,
			"count":8,
			"type":"VEC3"
		},
		{
			"bufferView":19,
			"componentType":5126,
			"count":8,
			"type":"VEC2"
		},
		{
			"bufferView":20,
			"componentType":5123,
			"count":36,
			"type":"SCALAR"
		},
		{
			"bufferView":21,
			"componentType":5126,
			"count":120,
			"max":[
				2.0159943103790283,
				0.3723435699939728,
				1.0722458362579346
			],
			"min":[
				-2.0159943103790283,
				0,
				-1.6668840646743774
			],
			"type":"VEC3"
		},
		{
			"bufferView":22,
			"componentType":5126,
			"count":120,
			"type":"VEC3"
		},
		{
			"bufferView":23,
			"componentType":5126,
			"count":120,
			"type":"VEC2"
		},
		{
			"bufferView":24,
			"componentType":5123,
			"count":228,
			"type":"SCALAR"
		},
		{
			"bufferView":25,
			"componentType":5126,
			"count":41,
			"max":[
				1.6666666666666667
			],
			"min":[
				0
			],
			"type":"SCALAR"
		},
		{
			"bufferView":26,
			"componentType":5126,
			"count":41,
			"type":"VEC3"
		},
		{
			"bufferView":27,
			"componentType":5126,
			"count":41,
			"type":"VEC4"
		},
		{
			"bufferView":28,
			"componentType":5126,
			"count":41,
			"type":"VEC4"
		}
	],
	"bufferViews":[
		{
			"buffer":0,
			"byteLength":984,
			"byteOffset":0,
			"target":34962
		},
		{
			"buffer":0,
			"byteLength":984,
			"byteOffset":984,
			"target":34962
		},
		{
			"buffer":0,
			"byteLength":656,
			"byteOffset":1968,
			"target":34962
		},
		{
			"buffer":0,
			"byteLength":456,
			"byteOffset":2624,
			"target":34963
		},
		{
			"buffer":0,
			"byteLength":16488,
			"byteOffset":3080,
			"target":34962
		},
		{
			"buffer":0,
			"byteLength":16488,
			"byteOffset":19568,
			"target":34962
		},
		{
			"buffer":0,
			"byteLength":10992,
			"byteOffset":36056,
			"target":34962
		},
		{
			"buffer":0,
			"byteLength":8664,
			"byteOffset":47048,
			"target":34963
		},
		{
			"buffer":0,
			"byteLength":600,
			"byteOffset":55712,
			"target":34962
		},
		{
			"buffer":0,
			"byteLength":600,
			"byteOffset":56312,
			"target":34962
		},
		{
			"buffer":0,
			"byteLength":400,
			"byteOffset":56912,
			"target":34962
		},
		{
			"buffer":0,
			"byteLength":444,
			"byteOffset":57312,
			"target":34963
		},
		{
			"buffer":0,
			"byteLength":16178,
			"byteOffset":57756
		},
		{
			"buffer":0,
			"byteLength":360,
			"byteOffset":73936,
			"target":34962
		},
		{
			"buffer":0,
			"byteLength":360,
			"byteOffset":74296,
			"target":34962
		},
		{
			"buffer":0,
			"byteLength":240,
			"byteOffset":74656,
			"target":34962
		},
		{
			"buffer":0,
			"byteLength":204,
			"byteOffset":74896,
			"target":34963
		},
		{
			"buffer":0,
			"byteLength":96,
			"byteOffset":75100,
			"target":34962
		},
		{
			"buffer":0,
			"byteLength":96,
			"byteOffset":75196,
			"target":34962
		},
		{
			"buffer":0,
			"byteLength":64,
			"byteOffset":75292,
			"target":34962
		},
		{
			"buffer":0,
			"byteLength":72,
			"byteOffset":75356,
			"target":34963
		},
		{
			"buffer":0,
			"byteLength":1440,
			"byteOffset":75428,
			"target":34962
		},
		{
			"buffer":0,
			"byteLength":1440,
			"byteOffset":76868,
			"target":34962
		},
		{
			"buffer":0,
			"byteLength":960,
			"byteOffset":78308,
			"target":34962
		},
		{
			"buffer":0,
			"byteLength":456,
			"byteOffset":79268,
			"target":34963
		},
		{
			"buffer":0,
			"byteLength":164,
			"byteOffset":79724
		},
		{
			"buffer":0,
			"byteLength":492,
			"byteOffset":79888
		},
		{
			"buffer":0,
			"byteLength":656,
			"byteOffset":80380
		},
		{
			"buffer":0,
			"byteLength":656,
			"byteOffset":81036
		}
	],
	"samplers":[
		{
			"magFilter":9729,
			"minFilter":9987
		}
	],
	"buffers":[
		{
			"byteLength":81692,
			"uri":"data:application/octet-stream;base64,"
		}
	]
}
